# xmcd
#
# Track frame offsets:
#	150
#	11174
#	28009
#	42158
#	54282
#	66246
#	79003
#	94756
#	112252
#	127179
#	145251
#	160523
#	175909
#	196908
#	206978
#	222294
#	239829
#	255578
#	276916
#	289634
#	306917
#	324557
#	333708
#	345842
#
# Disc length: 4762 seconds
#
# Revision: 0
# Processed by: cddbd v1.5.2PL0 Copyright (c) Steve Scherf et al.
# Submitted via: dBpowerAMP V4.0
#
DISCID=71129818
DTITLE=Various Artist - Sun Sand Surf and Suds 
DYEAR=2007
DGENRE=Beach
TTITLE0=Bo Schronce and J. Barker (orig demo)  - Summertime's Calling Me 
TTITLE1=Admiral Ice  - I'm So Glad It's Summer
TTITLE2=Stewart Harris  - Summertime Again 
TTITLE3=Bridgette Danielle  - Beach Music Girl 
TTITLE4=Screamin' A's  -  Headin' Out 
TTITLE5=Band of Oz  - I'm Gonna Love You 
TTITLE6=Men of Distinction  - Beez That Way Sometimes 
TTITLE7=Central Park Band  - You Don't Know 
TTITLE8=Attractions  - Girl Why You Wanna Do Me Like That
TTITLE9=Entertainers  - Beach Music-/ My Music 
TTITLE10=Counts  - Four Leaf Clover 
TTITLE11=Chrissie Zastrow  - Moonlight Boogie 
TTITLE12=Band of Oz  - One More Step To Take 
TTITLE13=Second Nature  - Never Gonna Rain in Heaven 
TTITLE14=Shagtime  - I Could Be Your Everything 
TTITLE15=Marcel Evans  - Nobody But You 
TTITLE16=Phil Flowers  - Love Sweet Love
TTITLE17=Shagtime  - Your Precious Love 
TTITLE18=Cannonball  - Silly Little Girl 
TTITLE19=Castaways  - Bury Me On the Beach 
TTITLE20=Carousels  - Baby you're Why I'm Leaving 
TTITLE21=Catalinas - Tick Tock  
TTITLE22=Fortune  - I Wanna) Beach Girl
TTITLE23=John Mahoney  - Summer Love 
EXTD=
EXTT0=
EXTT1=
EXTT2=
EXTT3=
EXTT4=
EXTT5=
EXTT6=
EXTT7=
EXTT8=
EXTT9=
EXTT10=
EXTT11=
EXTT12=
EXTT13=
EXTT14=
EXTT15=
EXTT16=
EXTT17=
EXTT18=
EXTT19=
EXTT20=
EXTT21=
EXTT22=
EXTT23=
PLAYORDER=
